<svg width="78" height="17" viewBox="0 0 78 17" fill="none" xmlns="http://www.w3.org/2000/svg">
<g opacity="0.5">
<path d="M13.168 14.0833H5.42779C4.35236 14.0833 3.47947 13.2078 3.47947 12.1291V9.57514C3.47947 8.49646 4.35236 7.62095 5.42779 7.62095H13.2162C14.7136 7.62095 15.9265 6.40442 15.9265 4.9025C15.9265 4.79366 15.8397 4.70417 15.7312 4.70417H4.30654C1.92902 4.70176 0 6.6366 0 9.02129V12.6733C0 15.058 1.92902 16.9928 4.30654 16.9928H6.55385C6.63825 16.9953 6.72264 17.0001 6.80945 17.0001H10.653C12.1504 17.0001 13.3633 15.7836 13.3633 14.2816C13.3633 14.1728 13.2765 14.0833 13.168 14.0833Z" fill="#484848"/>
<path d="M16.5269 0.0170213H14.2796C14.1952 0.0146027 14.1108 0.00976562 14.024 0.00976562H10.1804C8.68301 0.00976562 7.47014 1.2263 7.47014 2.72822C7.47014 2.83705 7.55694 2.92654 7.66545 2.92654H15.4057C16.4811 2.92654 17.354 3.80205 17.354 4.88073V7.43472C17.354 8.51339 16.4811 9.38891 15.4057 9.38891H7.61723C6.11982 9.38891 4.90695 10.6054 4.90695 12.1074C4.90695 12.2162 4.99376 12.3057 5.10226 12.3057H16.5245C18.902 12.3057 20.831 10.3708 20.831 7.98615V4.33414C20.8334 1.95186 18.9068 0.0170213 16.5269 0.0170213Z" fill="#484848"/>
<path d="M42.6917 0H42.3613C40.7433 0 39.434 1.31569 39.434 2.93612V15.2683C39.434 15.3917 39.5353 15.4932 39.6583 15.4932H39.9886C41.6066 15.4932 42.9159 14.1776 42.9159 12.5571V0.224925C42.9159 0.101579 42.8146 0 42.6917 0Z" fill="#484848"/>
<path d="M37.7944 0.0120928H28.0552C25.6729 0.0120928 23.7414 1.94935 23.7414 4.33888V11.164C23.7414 13.5536 25.6729 15.4908 28.0552 15.4908H30.3073C30.3917 15.4932 30.4761 15.4981 30.5629 15.4981H34.4113C35.9111 15.4981 37.1264 14.2791 37.1264 12.7772C37.1264 12.6684 37.0396 12.5789 36.9311 12.5789H29.1764C28.0986 12.5789 27.2233 11.7034 27.2233 10.6199V9.20743C27.2233 9.1518 27.2691 9.10585 27.3246 9.10585H32.668C34.1437 9.10585 35.3373 7.90625 35.3373 6.42851C35.3373 6.31968 35.2505 6.23019 35.1419 6.23019H27.3246C27.2691 6.23019 27.2233 6.18424 27.2233 6.12861V4.89273C27.2233 3.81164 28.0962 2.9337 29.1764 2.9337H35.277C36.7768 2.9337 37.9921 1.71475 37.9921 0.212833C37.9897 0.0991606 37.9029 0.0120928 37.7944 0.0120928Z" fill="#484848"/>
<path d="M52.561 3.46578H53.9909C54.9024 3.46578 55.6402 2.72571 55.6402 1.8115V0.377294C55.6402 0.169299 55.4714 0 55.2641 0H53.8342C52.9227 0 52.1849 0.740077 52.1849 1.65429V3.08849C52.1849 3.29649 52.3536 3.46578 52.561 3.46578Z" fill="#484848"/>
<path d="M49.0815 0H48.7512C47.1332 0 45.8239 1.31569 45.8239 2.93612V15.2683C45.8239 15.3917 45.9252 15.4932 46.0482 15.4932H46.3785C47.9965 15.4932 49.3058 14.1776 49.3058 12.5571V0.224925C49.3058 0.101579 49.2045 0 49.0815 0Z" fill="#484848"/>
<path d="M72.2153 3.46578C70.3273 3.46578 68.7624 4.08977 67.6894 5.27486C66.72 6.34386 66.1871 7.8482 66.1871 9.51217C66.1871 12.9973 68.8757 15.6263 72.4396 15.6263C75.6249 15.6263 77.1536 13.6793 77.4358 13.2779C77.4599 13.2416 77.4526 13.1908 77.4213 13.1642L77.3128 13.0723C76.341 12.2524 75.0269 11.9888 73.8092 12.3491C73.3631 12.4821 72.8326 12.5765 72.2226 12.5765C70.9422 12.5765 69.8619 11.8727 69.3604 10.8327H76.681C77.4092 10.8327 77.9976 10.2426 78 9.51217C77.9976 6.12136 75.4585 3.46578 72.2153 3.46578ZM69.2567 8.32466C69.6473 7.2218 70.607 6.33419 72.0996 6.33419C74.1203 6.33419 74.7014 7.93043 74.8147 8.32466H69.2567Z" fill="#484848"/>
<path d="M55.428 4.20828H55.0977C53.4797 4.20828 52.1704 5.52397 52.1704 7.1444V15.2683C52.1704 15.3917 52.2717 15.4932 52.3946 15.4932H52.725C54.343 15.4932 55.6523 14.1776 55.6523 12.5571V4.43321C55.6523 4.30986 55.5534 4.20828 55.428 4.20828Z" fill="#484848"/>
<path d="M64.5981 3.31825H62.3556V0.522407C62.3556 0.413572 62.305 0.31683 62.2206 0.251529C62.1338 0.186228 62.0253 0.16688 61.924 0.198321L61.3549 0.370038C60.0456 0.766681 59.1631 1.94935 59.1462 3.31583H57.4969C57.3112 3.31583 57.1617 3.46579 57.1617 3.65201V6.08266C57.1617 6.26889 57.3112 6.41884 57.4969 6.41884H59.1462V11.5534C59.1462 13.1642 59.5827 14.3009 60.4435 14.9346C61.068 15.3941 62.0229 15.6238 63.2936 15.6238C63.7059 15.6238 64.1496 15.5997 64.627 15.5513C64.8007 15.5344 64.9333 15.3892 64.9333 15.2151V12.9344C64.9333 12.8401 64.8971 12.7554 64.8296 12.6901C64.7621 12.6273 64.6753 12.5934 64.5836 12.5982C64.1231 12.62 63.7228 12.62 63.3925 12.6007C63.0453 12.5789 62.7824 12.487 62.6088 12.3274C62.44 12.1726 62.3556 11.9114 62.3556 11.5558V6.42367H64.5981C64.7838 6.42367 64.9333 6.27372 64.9333 6.0875V3.65443C64.9333 3.4682 64.7838 3.31825 64.5981 3.31825Z" fill="#484848"/>
</g>
</svg>
