<?xml version="1.0" standalone="no"?>
<!DOCTYPE svg PUBLIC "-//W3C//DTD SVG 20010904//EN"
 "http://www.w3.org/TR/2001/REC-SVG-20010904/DTD/svg10.dtd">
<svg version="1.0" xmlns="http://www.w3.org/2000/svg"
 width="700.000000pt" height="700.000000pt" viewBox="0 0 700.000000 700.000000"
 preserveAspectRatio="xMidYMid meet">
<metadata>
Created by potrace 1.14, written by Peter Selinger 2001-2017
</metadata>
<g transform="translate(0.000000,700.000000) scale(0.100000,-0.100000)"
fill="#000000" stroke="none">
<path d="M4605 6141 c4 -8 -18 -11 -69 -12 -116 -2 -121 -2 -128 -13 -4 -6
-12 -5 -21 3 -9 6 -18 8 -20 4 -3 -5 -18 -9 -34 -8 -15 0 -31 -4 -35 -10 -5
-6 -8 -5 -8 3 0 8 -5 10 -12 5 -7 -4 -26 -9 -43 -10 -16 -2 -48 -6 -70 -9 -22
-4 -52 -7 -67 -8 -16 0 -28 -5 -28 -10 0 -5 -3 -6 -7 -3 -3 4 -12 2 -20 -4
-10 -9 -13 -8 -13 0 0 7 -5 9 -12 4 -15 -9 -30 -12 -75 -18 -18 -2 -37 -6 -43
-10 -6 -4 -25 -8 -43 -10 -34 -5 -53 -9 -77 -17 -8 -3 -46 -13 -85 -22 -38 -9
-79 -19 -90 -22 -11 -3 -24 -6 -30 -7 -5 -2 -16 -6 -23 -11 -7 -4 -16 -5 -19
-2 -3 3 -12 1 -20 -5 -7 -6 -13 -8 -13 -4 0 4 -7 2 -15 -5 -8 -6 -19 -9 -25
-5 -5 3 -10 2 -10 -3 0 -5 -6 -9 -12 -9 -10 -1 -103 -30 -246 -78 -7 -3 -16
-5 -20 -6 -4 0 -16 -6 -27 -12 -11 -6 -23 -12 -27 -13 -5 -1 -10 -3 -13 -4 -3
-1 -8 -3 -12 -5 -18 -5 -49 -17 -66 -26 -10 -5 -22 -7 -27 -4 -6 4 -10 2 -10
-3 0 -8 -13 -15 -50 -26 -3 -1 -11 -5 -17 -9 -7 -5 -13 -5 -13 -2 0 3 -10 -1
-22 -9 -12 -9 -31 -16 -41 -16 -10 0 -15 -4 -12 -10 3 -5 0 -7 -8 -4 -8 3 -18
0 -22 -5 -3 -6 -11 -9 -16 -6 -5 4 -9 1 -9 -4 0 -6 -9 -11 -20 -11 -11 0 -20
-5 -20 -11 0 -5 -4 -7 -10 -4 -5 3 -10 1 -10 -6 0 -7 -3 -10 -6 -6 -4 3 -24
-3 -45 -14 -22 -11 -39 -16 -39 -12 0 5 -4 3 -8 -3 -8 -13 -80 -47 -101 -48
-8 -1 -16 -7 -19 -14 -2 -6 -10 -12 -19 -12 -8 0 -28 -9 -44 -21 -16 -11 -29
-18 -29 -15 0 3 -22 -7 -48 -23 -27 -16 -59 -32 -70 -36 -12 -3 -22 -11 -22
-17 0 -6 -3 -9 -6 -5 -3 3 -25 -6 -47 -19 -23 -14 -50 -27 -59 -31 -10 -3 -18
-10 -18 -15 0 -5 -4 -7 -9 -4 -5 3 -14 -1 -21 -9 -7 -8 -16 -12 -21 -9 -5 3
-9 0 -9 -7 0 -7 -3 -10 -6 -6 -3 3 -16 -3 -27 -14 -12 -11 -27 -17 -34 -15 -7
3 -13 -2 -13 -10 0 -8 -4 -12 -10 -9 -5 3 -10 1 -10 -5 0 -6 -4 -8 -10 -5 -5
3 -10 2 -10 -3 0 -9 -9 -13 -45 -21 -5 -1 -14 -9 -18 -17 -4 -8 -14 -14 -22
-14 -7 0 -15 -3 -17 -7 -4 -10 -107 -73 -119 -73 -5 0 -9 -4 -9 -8 0 -5 -18
-17 -40 -27 -22 -10 -40 -22 -40 -27 0 -5 -13 -14 -30 -19 -16 -6 -30 -14 -30
-19 0 -4 -13 -13 -30 -20 -16 -7 -30 -16 -30 -20 0 -4 -13 -13 -30 -20 -16 -7
-30 -16 -30 -20 0 -4 -13 -13 -30 -20 -16 -7 -28 -16 -25 -20 3 -4 -7 -11 -20
-14 -16 -4 -23 -11 -19 -18 4 -6 3 -8 -3 -5 -6 4 -23 -4 -39 -18 -15 -13 -31
-22 -35 -19 -4 2 -10 -3 -13 -12 -4 -9 -9 -15 -12 -12 -3 3 -18 -6 -33 -21
-39 -36 -59 -51 -66 -51 -8 0 -99 -73 -103 -82 -2 -5 -8 -8 -13 -8 -8 0 -35
-20 -65 -48 -8 -7 -14 -11 -14 -8 0 6 -24 -14 -74 -59 -12 -11 -35 -29 -50
-40 -16 -11 -42 -32 -57 -47 -16 -15 -29 -24 -29 -20 0 3 -14 -8 -30 -26 -17
-18 -30 -31 -30 -27 0 3 -11 -4 -25 -17 -13 -13 -41 -36 -61 -53 -44 -37 -126
-110 -171 -152 -18 -17 -33 -29 -33 -25 0 3 -13 -9 -28 -26 -16 -18 -34 -32
-40 -32 -7 0 -12 -7 -12 -15 0 -8 -3 -15 -7 -15 -11 0 -77 -60 -67 -60 5 0 2
-5 -6 -11 -11 -8 -8 -9 13 -4 22 4 27 3 21 -7 -6 -10 -5 -10 7 -1 16 13 36 12
57 0 6 -5 12 -4 12 2 0 5 9 9 20 8 11 -1 20 -5 20 -10 0 -6 5 -6 13 0 14 10
73 10 83 0 4 -4 14 -1 22 6 18 14 22 13 33 -5 6 -8 9 -9 9 -1 0 12 17 12 37 0
6 -4 14 -3 17 1 6 10 46 10 63 -1 6 -4 14 -3 17 2 7 10 25 9 43 -2 6 -4 14 -3
17 1 6 11 66 9 84 -2 6 -4 12 -3 12 2 0 12 32 11 49 -2 11 -8 13 -8 7 2 -4 7
-1 12 9 12 9 0 13 5 10 10 -3 6 -2 10 3 10 5 0 21 10 34 23 54 47 107 89 110
86 2 -2 22 15 44 36 23 22 48 45 55 50 8 6 35 27 61 46 26 20 44 40 40 44 -4
5 -2 5 4 2 10 -6 24 3 87 58 9 8 21 15 26 15 5 0 14 7 21 15 7 8 17 12 23 8 5
-3 7 -1 3 5 -3 6 3 13 14 17 11 4 18 10 15 15 -3 4 5 11 18 14 12 3 37 19 56
36 18 16 37 27 42 24 5 -3 9 2 9 10 0 9 5 16 10 16 19 0 110 66 102 74 -4 4
-2 7 3 5 14 -3 65 22 65 33 0 4 7 8 15 8 9 0 18 7 21 15 4 8 10 13 14 10 4 -2
19 6 33 19 14 13 28 21 31 18 3 -3 6 0 6 7 0 7 5 9 10 6 6 -3 10 -1 10 4 0 6
7 11 15 11 8 0 15 5 15 10 0 6 7 10 15 10 8 0 15 5 15 11 0 5 5 7 10 4 6 -3
13 1 16 9 3 9 10 13 15 10 5 -3 9 0 9 5 0 6 5 11 11 11 6 0 22 9 36 20 14 11
29 17 34 14 5 -3 9 0 9 6 0 6 10 14 23 19 12 5 39 21 60 35 21 14 42 26 47 26
6 0 10 5 10 11 0 5 4 8 9 5 5 -3 14 1 21 9 7 8 16 12 21 10 4 -3 12 3 18 12 6
10 11 15 11 10 0 -4 18 4 40 18 22 14 46 25 55 25 8 0 15 4 15 9 0 5 18 16 40
25 22 9 40 21 40 27 0 5 4 8 9 4 5 -3 15 1 23 8 7 8 19 12 26 9 6 -2 12 1 12
8 0 6 5 8 10 5 6 -3 10 -2 10 3 0 6 12 13 26 16 14 4 43 18 65 32 21 13 39 22
39 19 0 -2 15 4 33 15 17 11 40 20 50 20 9 0 17 4 17 10 0 5 18 15 40 21 24 7
37 16 33 23 -4 6 0 5 9 -2 13 -10 17 -10 22 3 3 8 14 15 25 15 11 0 25 8 30
18 8 13 11 14 11 2 1 -12 3 -12 14 2 7 10 15 15 18 13 4 -5 53 13 123 45 11 5
47 19 80 30 33 12 69 25 80 30 11 4 34 13 50 18 17 6 39 13 50 18 11 4 29 9
39 11 11 2 25 8 32 14 7 6 18 8 24 4 5 -3 10 -2 10 3 0 5 6 9 13 10 25 1 71
13 87 22 10 5 20 6 24 3 3 -3 6 -1 6 6 0 7 5 9 10 6 6 -4 17 -1 25 5 8 7 20
10 27 8 7 -3 23 1 36 8 13 7 34 11 48 9 14 -1 21 2 17 8 -4 6 2 8 16 4 12 -3
27 0 34 7 7 7 17 11 24 9 6 -2 14 0 17 6 4 6 13 8 21 4 9 -3 23 1 32 8 12 10
15 10 9 2 -4 -7 -2 -13 3 -13 6 0 11 4 11 9 0 6 9 8 20 6 11 -2 22 -1 24 3 2
4 19 9 37 10 18 2 36 7 40 13 5 8 8 8 13 0 5 -7 15 -7 32 -1 14 6 30 8 35 4 5
-3 9 -1 9 4 0 5 10 8 23 7 12 -1 30 2 40 7 12 6 17 5 17 -4 0 -8 3 -9 8 -3 7
11 46 17 119 19 24 0 43 3 43 6 0 3 27 5 60 5 35 -1 60 3 60 10 0 6 3 7 8 0 8
-11 42 -16 42 -6 0 8 124 6 138 -3 6 -3 13 0 15 6 4 10 6 10 6 1 1 -7 6 -13
12 -13 5 0 8 4 5 9 -3 5 8 6 27 2 17 -4 42 -6 55 -5 12 1 22 -3 22 -8 0 -5 7
-5 18 0 9 5 26 6 37 2 11 -4 26 -3 32 2 9 7 14 6 18 -3 3 -9 21 -14 50 -13 25
0 45 -2 45 -6 0 -4 12 -7 28 -7 15 0 35 -4 45 -8 9 -4 26 -5 37 -2 11 3 18 1
14 -4 -3 -5 6 -10 20 -10 35 -2 37 -3 65 -18 13 -7 20 -8 17 -2 -4 5 6 4 21
-4 15 -8 38 -15 51 -15 12 0 22 -4 22 -10 0 -5 9 -10 19 -10 11 0 23 -4 26
-10 3 -5 17 -10 31 -10 13 0 24 -4 24 -9 0 -5 17 -15 38 -21 20 -7 48 -22 61
-34 13 -11 20 -14 16 -6 -5 8 4 5 19 -8 16 -12 32 -19 37 -16 5 3 9 -2 9 -10
0 -9 3 -15 8 -15 19 3 33 -2 27 -11 -3 -5 0 -10 8 -10 8 0 29 -13 46 -29 18
-17 34 -30 36 -30 3 -1 9 -1 14 -1 5 0 13 -9 16 -20 3 -11 11 -20 17 -20 19 0
171 -164 161 -174 -4 -3 1 -6 10 -6 10 0 16 -3 15 -7 -2 -5 8 -23 22 -41 14
-19 24 -36 22 -38 -1 -3 3 -11 10 -19 30 -33 38 -45 33 -45 -4 0 2 -12 13 -27
22 -34 52 -97 52 -112 0 -6 5 -11 11 -11 5 0 8 -4 4 -9 -3 -5 0 -13 6 -16 5
-4 8 -13 5 -21 -3 -8 -2 -14 3 -14 8 0 25 -56 22 -72 0 -5 3 -8 7 -8 5 0 9 -6
10 -12 1 -15 6 -38 21 -86 5 -18 10 -35 10 -37 1 -3 1 -6 2 -7 3 -10 10 -58
12 -85 1 -18 5 -33 9 -33 4 0 8 -10 8 -22 0 -54 6 -94 15 -100 6 -5 5 -8 -3
-8 -8 0 -10 -5 -6 -12 4 -6 9 -36 10 -65 1 -29 5 -57 9 -63 3 -5 1 -10 -5 -10
-6 0 -8 -5 -4 -11 12 -20 12 -89 1 -89 -8 0 -8 -3 0 -11 7 -7 8 -21 3 -40 -5
-18 -5 -27 0 -24 6 4 7 -6 4 -22 -2 -15 -6 -57 -7 -93 -2 -36 -6 -71 -10 -77
-5 -8 -3 -13 5 -13 10 0 10 -2 1 -8 -35 -22 13 -28 212 -27 116 1 215 3 222 3
6 1 10 13 8 27 -1 14 1 25 4 25 3 0 6 41 6 91 0 50 3 95 6 100 3 6 3 30 -1 54
-4 26 -3 48 4 55 6 6 6 10 1 10 -6 0 -11 39 -12 88 -3 135 -7 202 -13 202 -4
0 -6 10 -7 23 0 12 -4 45 -8 72 -5 28 -9 64 -9 82 -1 17 -5 29 -10 25 -5 -3
-7 2 -3 10 3 9 3 19 -1 22 -5 6 -9 18 -16 56 -4 25 -17 72 -33 120 -8 25 -16
52 -18 60 -2 8 -4 16 -5 18 -2 1 -3 6 -4 11 0 5 -4 13 -8 17 -5 4 -8 16 -8 26
0 10 -5 18 -11 18 -5 0 -8 4 -5 8 2 4 -11 41 -30 81 -19 40 -32 77 -29 82 4 5
-1 6 -10 3 -11 -4 -14 -2 -10 9 4 8 0 21 -8 28 -7 8 -20 29 -28 47 -7 17 -17
32 -21 32 -5 0 -8 6 -8 13 0 8 -9 24 -20 37 -11 13 -20 29 -20 37 0 8 -4 11
-10 8 -9 -6 -14 8 -11 28 0 4 -6 7 -14 7 -8 0 -15 7 -15 15 0 8 -5 15 -12 15
-6 0 -8 3 -5 7 4 3 -2 12 -13 20 -11 8 -20 21 -20 29 0 8 -4 12 -10 9 -5 -3
-10 -1 -10 5 0 7 -22 34 -49 60 -27 27 -47 51 -44 54 4 3 1 6 -6 6 -16 0 -41
25 -41 40 0 6 -4 9 -8 6 -4 -2 -23 11 -41 29 -18 19 -42 37 -52 40 -10 4 -19
10 -19 15 0 5 -17 19 -37 31 -21 13 -47 31 -57 41 -18 16 -25 19 -42 17 -3 0
-11 6 -17 14 -7 8 -37 27 -67 43 -30 16 -58 33 -61 37 -3 5 -9 8 -12 8 -4 0
-28 9 -54 21 -27 12 -51 22 -55 22 -3 1 -10 4 -14 9 -4 4 -16 7 -26 7 -10 0
-18 5 -18 11 0 5 -4 8 -8 5 -5 -3 -19 1 -33 7 -22 12 -91 34 -128 42 -9 2 -38
10 -65 19 -27 8 -53 13 -58 10 -4 -3 -8 -1 -8 5 0 5 -7 8 -16 7 -9 -1 -39 3
-66 11 -28 7 -54 10 -59 8 -4 -3 -10 -1 -13 3 -3 5 -16 9 -28 8 -13 -1 -26 3
-30 9 -5 6 -8 5 -8 -3 0 -9 -5 -10 -17 -4 -10 5 -33 9 -51 8 -17 0 -32 1 -32
4 0 6 -34 8 -167 11 -47 1 -73 5 -73 13 0 7 -3 7 -8 1 -10 -13 -72 -14 -72 -1
0 6 -5 4 -10 -4 -8 -12 -11 -13 -19 -1 -7 11 -9 11 -13 0 -5 -12 -9 -12 -28
-1 -12 8 -19 9 -15 3z"/>
<path d="M374 3261 c3 -5 8 -28 11 -52 6 -47 13 -84 15 -84 2 0 6 -18 14 -62
3 -18 10 -43 15 -56 6 -14 7 -28 4 -31 -4 -3 -2 -6 3 -6 6 0 10 -10 11 -22 0
-13 12 -53 26 -90 14 -36 23 -69 19 -72 -3 -3 0 -6 6 -6 7 0 12 -11 12 -24 0
-13 7 -29 15 -36 8 -7 13 -16 10 -20 -3 -5 1 -15 9 -23 8 -8 12 -17 9 -21 -4
-3 -1 -6 5 -6 7 0 11 -3 10 -7 -4 -13 24 -73 34 -73 5 0 7 -4 4 -9 -3 -5 5
-25 19 -45 14 -20 25 -40 25 -43 0 -3 11 -21 26 -40 14 -18 21 -33 17 -33 -4
0 0 -5 10 -11 9 -5 17 -17 17 -24 0 -8 5 -15 10 -15 6 0 14 -8 17 -17 8 -19 7
-19 58 -77 19 -22 31 -45 28 -50 -3 -6 -3 -8 2 -4 9 8 35 -15 35 -32 0 -6 5
-8 10 -5 6 3 10 -2 10 -11 0 -10 3 -14 6 -11 7 7 44 -30 44 -43 0 -4 12 -12
26 -18 14 -7 22 -17 19 -22 -3 -6 1 -10 9 -10 8 0 22 -10 30 -22 9 -12 16 -19
16 -15 0 5 11 -3 24 -17 13 -15 28 -26 35 -26 6 0 11 -4 11 -10 0 -5 5 -10 11
-10 16 0 39 -26 31 -35 -4 -5 1 -6 10 -2 9 3 19 0 22 -9 3 -8 12 -14 21 -14 8
0 15 -5 15 -12 0 -6 3 -9 6 -5 3 3 15 -3 27 -13 11 -11 24 -17 29 -14 4 3 8 1
8 -4 0 -9 50 -37 63 -34 4 1 7 -2 7 -6 0 -5 16 -14 35 -22 19 -8 35 -18 35
-22 0 -5 4 -6 10 -3 5 3 10 2 10 -4 0 -6 7 -7 17 -4 12 5 14 3 8 -7 -6 -10 -3
-12 13 -8 12 4 22 2 22 -2 0 -9 40 -25 53 -22 4 1 7 -3 7 -9 0 -6 7 -9 15 -6
8 4 17 2 20 -3 3 -5 36 -19 72 -30 37 -11 72 -25 80 -31 9 -8 13 -8 13 0 0 8
6 8 18 2 30 -16 56 -24 80 -24 12 0 22 -3 22 -6 0 -4 10 -8 23 -9 24 -2 62
-10 62 -12 0 -1 14 -3 30 -6 55 -8 64 -10 71 -17 4 -4 13 -2 21 4 7 6 13 7 13
2 0 -5 6 -10 13 -10 6 0 41 -4 77 -8 36 -4 89 -8 117 -9 29 -1 53 -3 53 -6 0
-8 405 -4 418 4 7 4 12 2 12 -6 0 -9 3 -9 8 -2 4 6 21 11 37 11 17 0 62 3 100
7 39 4 81 8 95 9 14 1 31 6 39 11 10 7 12 6 6 -4 -6 -10 -4 -11 6 -4 8 4 23 9
34 10 11 1 43 5 70 9 28 4 56 8 63 8 6 0 12 3 12 7 0 3 16 6 35 5 19 -1 35 2
35 8 0 5 13 7 30 5 16 -2 31 -1 32 3 2 5 18 9 36 11 19 1 36 6 38 10 2 4 14 5
26 3 12 -3 26 -1 32 4 13 10 85 25 104 22 6 -1 12 3 12 9 0 5 3 9 8 9 4 -1 9
0 12 1 3 1 14 3 25 5 26 4 51 10 105 26 25 7 48 13 53 15 4 1 10 3 15 4 4 1
11 2 16 1 5 -1 12 2 15 6 6 8 94 35 119 36 6 0 12 4 12 7 0 4 18 10 40 14 23
3 39 10 36 15 -3 5 2 8 12 8 26 -1 72 14 72 24 0 4 9 6 20 4 11 -2 20 0 20 6
0 5 3 8 7 7 5 0 15 1 23 5 60 22 106 38 114 37 5 -1 12 3 16 10 4 6 17 12 28
13 12 1 22 5 22 9 0 4 3 7 8 6 14 -3 62 14 62 23 0 5 6 9 14 9 7 0 31 8 52 17
22 9 42 16 47 15 4 -1 7 3 7 8 0 5 3 9 8 9 18 -3 33 2 28 9 -4 7 10 11 52 14
6 1 12 5 12 9 0 8 40 24 53 21 4 -1 7 2 7 7 0 8 37 24 53 22 4 -1 7 4 7 9 0 6
8 10 17 10 9 0 24 7 34 16 9 8 26 16 38 17 11 1 21 4 21 7 0 3 9 11 21 18 17
11 20 11 13 0 -4 -7 2 -5 13 4 11 10 25 18 31 18 7 0 12 4 12 10 0 5 3 9 8 8
7 -2 83 33 92 42 3 3 24 14 47 24 23 10 40 22 37 27 -2 4 5 6 16 4 11 -2 20 0
20 4 0 5 26 22 58 37 31 16 63 35 70 41 7 7 20 13 28 13 8 0 14 5 14 11 0 5 5
7 10 4 6 -3 10 -1 10 5 0 6 5 8 10 5 6 -3 10 -3 10 2 0 4 25 21 55 38 30 16
55 32 55 36 0 4 11 10 25 13 14 4 25 11 25 17 0 6 5 7 10 4 6 -3 10 -1 10 5 0
6 4 8 10 5 6 -3 10 -1 10 4 0 6 7 11 15 11 8 0 15 5 15 11 0 6 7 9 15 5 8 -3
14 0 12 7 -1 7 4 11 11 10 6 -2 12 1 12 6 0 5 14 14 30 21 17 7 30 16 30 21 0
5 7 9 15 9 8 0 15 5 15 10 0 6 6 10 13 10 7 0 23 9 35 20 12 11 26 20 32 20 6
0 8 4 5 10 -3 6 1 7 9 4 9 -4 18 1 22 10 3 9 10 14 14 11 4 -3 11 2 14 11 3 8
10 13 14 10 5 -3 22 8 39 23 32 29 62 46 76 42 5 -1 6 2 3 7 -3 5 6 14 19 20
14 7 25 16 25 22 0 6 4 9 9 6 5 -3 22 7 38 22 16 16 35 26 42 24 8 -3 11 0 7
7 -4 6 -1 11 7 11 8 0 18 7 21 16 3 8 10 13 15 9 6 -3 13 1 18 8 4 8 21 22 38
33 16 10 37 26 47 34 36 32 48 40 48 33 0 -4 7 3 16 15 8 12 20 20 25 17 5 -4
9 -2 9 3 0 5 15 20 34 33 19 13 32 28 29 33 -3 5 -1 6 4 3 6 -4 25 7 43 23 18
17 36 30 41 30 5 0 9 4 9 10 0 5 -145 9 -379 10 -367 0 -381 0 -418 -21 -21
-11 -44 -28 -50 -37 -7 -9 -13 -12 -13 -6 0 5 -3 5 -8 -1 -11 -15 -70 -55 -82
-55 -5 0 -10 -4 -10 -9 0 -5 -16 -16 -35 -25 -19 -9 -35 -21 -35 -27 0 -6 -5
-7 -10 -4 -6 3 -10 1 -10 -4 0 -6 -7 -11 -15 -11 -9 0 -18 -7 -21 -15 -4 -8
-10 -12 -15 -9 -5 3 -9 1 -9 -4 0 -5 -8 -12 -17 -16 -21 -6 -51 -25 -71 -44
-7 -7 -18 -10 -23 -7 -5 4 -9 -1 -9 -10 0 -9 -4 -13 -10 -10 -5 3 -10 2 -10
-4 0 -6 -6 -8 -14 -5 -7 3 -16 -2 -19 -10 -4 -9 -13 -16 -22 -16 -8 0 -15 -4
-15 -10 0 -5 -11 -12 -25 -16 -14 -3 -25 -10 -25 -16 0 -5 -5 -6 -10 -3 -6 3
-13 -1 -16 -9 -3 -9 -10 -13 -15 -10 -5 3 -9 1 -9 -4 0 -6 -12 -15 -27 -21
-35 -13 -106 -53 -114 -65 -4 -5 -12 -5 -18 -2 -6 4 -11 0 -11 -9 0 -9 -4 -14
-9 -10 -5 3 -17 -2 -25 -11 -9 -8 -16 -12 -16 -8 0 3 -6 1 -13 -5 -8 -6 -17
-8 -20 -4 -4 3 -7 2 -7 -4 0 -6 -22 -23 -50 -37 -27 -14 -50 -24 -50 -20 0 3
-7 -2 -16 -11 -9 -9 -23 -14 -31 -11 -8 3 -11 2 -8 -3 3 -5 -5 -13 -17 -17
-13 -3 -35 -15 -50 -26 -16 -11 -32 -17 -37 -14 -5 3 -14 0 -20 -8 -7 -8 -23
-17 -36 -20 -14 -4 -25 -11 -25 -17 0 -6 -4 -8 -9 -4 -5 3 -12 1 -16 -5 -4 -6
-11 -8 -16 -5 -5 4 -9 1 -9 -4 0 -6 -9 -11 -20 -11 -11 0 -20 -5 -20 -12 0 -6
-3 -9 -6 -5 -4 3 -31 -7 -60 -23 -32 -17 -54 -24 -54 -17 0 7 -5 4 -11 -6 -6
-9 -14 -15 -20 -12 -5 4 -16 -1 -25 -9 -8 -9 -34 -21 -57 -28 -23 -6 -45 -17
-49 -23 -4 -5 -8 -7 -8 -2 0 4 -18 -2 -40 -13 -22 -11 -40 -18 -40 -15 0 3
-11 -2 -25 -11 -13 -8 -29 -13 -35 -9 -5 3 -10 1 -10 -4 0 -6 -9 -11 -19 -11
-11 0 -23 -5 -26 -10 -4 -6 -10 -8 -15 -5 -5 3 -11 1 -15 -5 -4 -6 -10 -8 -15
-5 -5 3 -11 1 -15 -5 -3 -5 -14 -10 -23 -10 -9 0 -30 -7 -45 -15 -16 -8 -38
-16 -50 -18 -12 -2 -30 -7 -39 -11 -9 -4 -22 -8 -30 -10 -7 -1 -18 -5 -24 -8
-6 -4 -30 -10 -52 -14 -23 -4 -42 -10 -42 -15 0 -5 -3 -8 -7 -7 -5 1 -26 -3
-48 -7 -22 -5 -46 -8 -54 -6 -7 1 -10 -2 -6 -8 4 -7 -4 -11 -19 -12 -26 -1
-44 -5 -48 -8 -6 -5 -54 -13 -75 -14 -13 -1 -23 -4 -23 -8 0 -7 -49 -19 -92
-21 -16 -1 -28 -5 -28 -8 0 -4 -14 -6 -30 -5 -17 1 -33 -2 -36 -7 -3 -4 -18
-8 -34 -8 -15 0 -31 -6 -33 -12 -4 -10 -6 -10 -6 0 -1 9 -7 10 -18 4 -22 -10
-33 -10 -52 2 -10 7 -12 6 -6 -4 6 -10 4 -12 -8 -7 -10 3 -17 3 -17 -2 0 -5
-15 -9 -32 -10 -18 0 -53 -3 -78 -6 -25 -3 -56 -6 -70 -8 -14 -1 -31 -6 -39
-11 -10 -6 -12 -5 -7 2 9 16 -7 15 -22 0 -9 -9 -12 -9 -12 1 0 9 -4 10 -12 4
-7 -5 -35 -9 -63 -9 -27 1 -53 -3 -57 -9 -5 -6 -8 -6 -8 1 0 8 -13 9 -40 4
-22 -4 -42 -5 -45 -2 -9 10 -135 8 -135 -2 0 -5 -6 -4 -12 1 -7 5 -33 9 -58 8
-25 0 -48 3 -52 9 -4 6 -12 5 -22 -3 -9 -8 -16 -9 -16 -4 0 10 -10 12 -72 13
-21 1 -38 5 -38 10 0 4 -9 6 -19 3 -10 -3 -29 1 -41 7 -15 8 -20 8 -16 1 4 -6
2 -11 -3 -11 -6 0 -11 4 -11 9 0 6 -8 10 -17 10 -46 2 -63 6 -63 14 0 4 -4 6
-8 3 -5 -3 -31 2 -58 10 -27 9 -57 17 -66 19 -9 2 -26 9 -37 15 -12 6 -21 8
-21 4 0 -3 -7 -1 -15 6 -8 7 -15 9 -15 4 0 -4 -5 -3 -12 4 -7 7 -20 12 -30 12
-10 0 -18 5 -18 10 0 6 -7 10 -16 10 -18 0 -170 76 -196 98 -10 8 -18 11 -18
7 0 -4 -8 2 -19 13 -10 12 -22 22 -27 22 -5 0 -21 10 -36 23 -14 12 -36 30
-47 40 -12 9 -26 17 -31 17 -6 0 -10 7 -10 16 0 8 -4 12 -10 9 -5 -3 -10 2
-10 11 0 10 -3 15 -6 11 -9 -9 -141 131 -136 146 1 4 -5 7 -14 7 -9 0 -14 6
-12 12 3 7 -6 21 -19 32 -13 10 -22 21 -19 23 3 3 -6 17 -19 31 -13 14 -22 29
-19 34 3 4 0 8 -5 8 -6 0 -11 9 -11 21 0 11 -4 17 -10 14 -5 -3 -10 3 -10 13
0 11 -7 25 -15 32 -8 7 -12 16 -9 21 3 5 0 9 -5 9 -6 0 -11 5 -11 10 0 6 -9
29 -19 53 -22 49 -34 79 -35 89 -1 3 -4 10 -8 14 -5 4 -8 16 -8 26 0 10 -6 18
-12 18 -9 0 -8 4 2 10 11 7 11 10 2 10 -7 0 -11 4 -7 9 3 5 1 12 -5 16 -5 3
-10 19 -10 35 0 16 -4 31 -9 34 -5 3 -8 19 -7 35 1 17 -2 28 -6 25 -4 -3 -8 4
-8 15 0 52 6 51 -252 51 -134 0 -237 -4 -234 -9z"/>
<path d="M341 443 c-6 -13 -7 -23 -2 -23 9 0 8 -36 -2 -46 -3 -4 -3 -12 0 -18
4 -6 8 -38 8 -71 1 -34 5 -66 9 -73 4 -7 2 -12 -4 -12 -7 0 -8 -5 -3 -12 4 -7
9 -31 9 -53 1 -22 3 -42 5 -45 4 -10 7 -26 8 -57 l1 -33 240 0 241 0 -3 35
c-1 19 -6 35 -11 35 -5 0 -7 6 -4 13 3 7 2 32 -3 55 -5 29 -4 42 4 42 8 0 8 2
0 8 -11 7 -16 52 -18 179 0 39 -4 69 -7 67 -4 -2 -5 4 -3 14 5 16 -11 17 -225
17 -229 0 -230 0 -240 -22z"/>
<path d="M6587 33 c-3 -4 -151 -8 -329 -7 -252 0 -327 -3 -343 -13 -16 -11 45
-13 377 -13 322 0 397 3 401 13 4 10 -5 13 -36 12 -23 -1 -47 2 -54 7 -6 5
-13 5 -16 1z"/>
</g>
</svg>
